<?xml version="1.0" encoding="utf-8"?>
<!-- Generator: Adobe Illustrator 26.0.2, SVG Export Plug-In . SVG Version: 6.00 Build 0)  -->
<svg version="1.1" id="Ebene_1" xmlns="http://www.w3.org/2000/svg" xmlns:xlink="http://www.w3.org/1999/xlink" x="0px" y="0px"
	 viewBox="0 0 595.28 841.89" style="enable-background:new 0 0 595.28 841.89;" xml:space="preserve">
<style type="text/css">
	.st0{fill:#F18604;}
	.st1{fill:#FAB612;}
	.st2{fill:#05181E;}
	.st3{fill:#06181E;}
</style>
<g id="Ebene_2_00000113352544089702035160000004655995298701949605_" transform="translate(-95.51 -236.28)">
	<circle id="Ellipse_1" class="st0" cx="393.01" cy="649.91" r="41.39"/>
	<path id="Pfad_1" class="st1" d="M351.61,649.91c0,22.86,18.53,41.39,41.39,41.39c0,0,0,0,0,0c0.27,0,0.54-0.02,0.81-0.02
		c14.17-8.34,19.11-23.74,19.11-41.37c0-17.63-4.94-33.03-19.11-41.37c-0.27-0.01-0.54-0.02-0.81-0.02
		C370.15,608.52,351.62,627.05,351.61,649.91C351.61,649.91,351.61,649.91,351.61,649.91z"/>
	<path id="Pfad_2" class="st2" d="M410.95,626.07L395.1,653.4v-21.63h-3.73v21.37l-15.85-27.05h-3.57v40.98h4.16v-32.62l15.26,25.97
		v6.64h3.73v-6.65l2.13-3.66l13.13,7.39v2.92h4.16v-40.98H410.95z M398.94,653.84l11.43-19.58v26L398.94,653.84z"/>
	<circle id="Ellipse_2" class="st2" cx="434.76" cy="614.79" r="6.01"/>
	<circle id="Ellipse_3" class="st2" cx="447.02" cy="618.8" r="3.01"/>
	<g id="Gruppe_1" transform="translate(132.743 322.034)">
		<path id="Pfad_3" class="st3" d="M231.94,372.32h4.28c3.37,0,5.63,2.16,5.63,5.26s-2.27,5.26-5.63,5.26h-4.28V372.32z
			 M236.16,381.88c2.8,0,4.6-1.77,4.6-4.3s-1.8-4.3-4.6-4.3h-3.11v8.6L236.16,381.88z"/>
		<path id="Pfad_4" class="st3" d="M251.79,381.88v0.96h-7.44v-10.52h7.21v0.96h-6.1v3.74h5.44v0.95h-5.44v3.9L251.79,381.88
			L251.79,381.88z"/>
		<path id="Pfad_5" class="st3" d="M253.4,381.57l0.43-0.86c0.96,0.84,2.2,1.29,3.47,1.28c1.97,0,2.83-0.83,2.83-1.86
			c0-2.88-6.48-1.11-6.48-5c0-1.55,1.2-2.88,3.88-2.88c1.15-0.01,2.29,0.31,3.26,0.93l-0.38,0.89c-0.86-0.56-1.86-0.86-2.88-0.87
			c-1.92,0-2.78,0.86-2.78,1.91c0,2.88,6.48,1.14,6.48,4.97c0,1.55-1.23,2.87-3.92,2.87C255.87,382.99,254.48,382.5,253.4,381.57z"
			/>
		<path id="Pfad_6" class="st3" d="M263.65,372.32h1.11v10.52h-1.11V372.32z"/>
		<path id="Pfad_7" class="st3" d="M275.59,377.59h1.07v4.01c-1.08,0.9-2.46,1.37-3.86,1.34c-2.95,0.08-5.41-2.26-5.49-5.21
			c-0.08-2.95,2.26-5.41,5.21-5.49c0.1,0,0.19,0,0.29,0c1.46-0.07,2.88,0.48,3.9,1.52l-0.69,0.71c-1.68-1.79-4.49-1.88-6.28-0.2
			c-1.79,1.68-1.88,4.49-0.2,6.28c0.85,0.91,2.05,1.42,3.29,1.4c0.98,0.03,1.95-0.25,2.75-0.81L275.59,377.59L275.59,377.59z"/>
		<path id="Pfad_8" class="st3" d="M288.59,372.32v10.52h-0.92l-6.76-8.53v8.53h-1.11v-10.52h0.92l6.78,8.53v-8.53H288.59z"/>
	</g>
	<path id="Pfad_9" class="st2" d="M437.06,643.51c0.24,1.65,0.38,3.3,0.44,4.97c12.34,3.33,16.72,7.29,16.72,9.68
		c0,2.39-4.43,6.39-16.92,9.74c-11.8,3.16-27.54,4.9-44.3,4.9c-16.76,0-32.49-1.74-44.29-4.9c-12.48-3.34-16.92-7.34-16.92-9.74
		s4.39-6.35,16.72-9.68c0.05-1.66,0.2-3.32,0.44-4.97c-12.84,3.25-21.51,8.15-21.51,14.65c0,12.68,32.98,19.32,65.56,19.32
		s65.56-6.63,65.56-19.32C458.57,651.66,449.9,646.75,437.06,643.51z"/>
</g>
</svg>
