<?xml version="1.0" encoding="utf-8"?>
<!-- Generator: Adobe Illustrator 26.0.2, SVG Export Plug-In . SVG Version: 6.00 Build 0)  -->
<svg version="1.1" id="Ebene_1" xmlns="http://www.w3.org/2000/svg" xmlns:xlink="http://www.w3.org/1999/xlink" x="0px" y="0px"
	 viewBox="0 0 305 225" style="enable-background:new 0 0 305 225;" xml:space="preserve">
<style type="text/css">
	.st0{fill:#F18604;}
	.st1{fill:#FAB612;}
	.st2{fill:#05181E;}
	.st3{fill:#06181E;}
</style>
<g id="Ebene_2_00000113352544089702035160000004655995298701949605_" transform="translate(-95.51 -236.28)">
	<circle id="Ellipse_1" class="st0" cx="248" cy="333.2" r="94.4"/>
	<path id="Pfad_1" class="st1" d="M153.6,333.2c0,52.1,42.3,94.4,94.4,94.4l0,0c0.6,0,1.2,0,1.8,0c32.3-19,43.6-54.1,43.6-94.3
		s-11.3-75.3-43.6-94.3c-0.6,0-1.2,0-1.8,0C195.9,238.8,153.6,281,153.6,333.2L153.6,333.2z"/>
	<path id="Pfad_2" class="st2" d="M288.9,278.8l-36.1,62.3v-49.3h-8.5v48.7l-36.1-61.7H200v93.5h9.5v-74.4l34.8,59.2v15.1h8.5v-15.2
		l4.9-8.3l29.9,16.9v6.7h9.5v-93.5L288.9,278.8L288.9,278.8z M261.6,342.1l26.1-44.7v59.3L261.6,342.1z"/>
	<circle id="Ellipse_2" class="st2" cx="343.2" cy="253.1" r="13.7"/>
	<circle id="Ellipse_3" class="st2" cx="371.2" cy="262.2" r="6.9"/>
	<g id="Gruppe_1" transform="translate(132.743 322.034)">
		<path id="Pfad_3" class="st3" d="M50.7,112.5h9.8c7.7,0,12.8,4.9,12.8,12c0,7.1-5.2,12-12.8,12h-9.8V112.5z M60.3,134.3
			c6.4,0,10.5-4,10.5-9.8c0-5.8-4.1-9.8-10.5-9.8h-7.1v19.6L60.3,134.3z"/>
		<path id="Pfad_4" class="st3" d="M96,134.3v2.2H79v-24h16.4v2.2H81.5v8.5h12.4v2.2H81.5v8.9L96,134.3L96,134.3z"/>
		<path id="Pfad_5" class="st3" d="M99.6,133.6l1-2c2.2,1.9,5,2.9,7.9,2.9c4.5,0,6.5-1.9,6.5-4.2c0-6.6-14.8-2.5-14.8-11.4
			c0-3.5,2.7-6.6,8.8-6.6c2.6,0,5.2,0.7,7.4,2.1l-0.9,2c-2-1.3-4.2-2-6.6-2c-4.4,0-6.3,2-6.3,4.4c0,6.6,14.8,2.6,14.8,11.3
			c0,3.5-2.8,6.5-8.9,6.5C105.3,136.8,102.1,135.7,99.6,133.6z"/>
		<path id="Pfad_6" class="st3" d="M123,112.5h2.5v24H123V112.5z"/>
		<path id="Pfad_7" class="st3" d="M150.2,124.5h2.4v9.1c-2.5,2.1-5.6,3.1-8.8,3.1c-6.7,0.2-12.3-5.2-12.5-11.9
			c-0.2-6.7,5.2-12.3,11.9-12.5c0.2,0,0.4,0,0.7,0c3.3-0.2,6.6,1.1,8.9,3.5l-1.6,1.6c-3.8-4.1-10.2-4.3-14.3-0.5
			c-4.1,3.8-4.3,10.2-0.5,14.3c1.9,2.1,4.7,3.2,7.5,3.2c2.2,0.1,4.4-0.6,6.3-1.8L150.2,124.5L150.2,124.5z"/>
		<path id="Pfad_8" class="st3" d="M179.9,112.5v24h-2.1L162.4,117v19.5h-2.5v-24h2.1l15.5,19.5v-19.5H179.9z"/>
	</g>
	<path id="Pfad_9" class="st2" d="M348.5,318.6c0.5,3.8,0.9,7.5,1,11.3c28.1,7.6,38.1,16.6,38.1,22.1s-10.1,14.6-38.6,22.2
		c-26.9,7.2-62.8,11.2-101,11.2c-38.2,0-74.1-4-101-11.2c-28.5-7.6-38.6-16.7-38.6-22.2s10-14.5,38.1-22.1c0.1-3.8,0.5-7.6,1-11.3
		c-29.3,7.4-49.1,18.6-49.1,33.4c0,28.9,75.2,44.1,149.5,44.1s149.5-15.1,149.5-44.1C397.5,337.2,377.8,326,348.5,318.6z"/>
</g>
</svg>
